Coordinates
version=1
nRows=10
nColumns=22
inDegrees=yes

Units are S.I. units (second, meters, Newtons, ...)
If the header above contains a line with 'inDegrees', this indicates whether rotational values are in degrees (yes) or radians (no).

endheader
time	pelvis_tilt	pelvis_list	pelvis_rotation	pelvis_tx	pelvis_ty	pelvis_tz	hip_flexion_r	hip_adduction_r	hip_rotation_r	knee_angle_r	ankle_angle_r	subtalar_angle_r	hip_flexion_l	hip_adduction_l	hip_rotation_l	knee_angle_l	ankle_angle_l	subtalar_angle_l	lumbar_extension	lumbar_bending	lumbar_rotation
      5.04000000	      0.01954985	      0.20678872	    272.53122869	     -0.43508845	      0.92523739	      0.49192947	     21.04557241	     -6.84439253	      3.02626557	    -73.43983575	     -7.25328364	     12.17556812	     13.78157616	      9.36363095	     -7.95976539	    -24.82311517	     11.58655275	    -15.04674968	     -6.42206334	     -4.76949080	     -0.99078385
      5.05000000	      0.01795641	      0.06184662	    273.94028410	     -0.43271609	      0.92629929	      0.49984773	     22.14862437	     -6.84430157	      3.49662491	    -73.13279914	     -6.06824902	     11.95042151	     12.59082930	      9.69059797	     -6.73337024	    -24.11103864	     11.71789384	    -15.04187227	     -6.67471509	     -4.57135015	     -1.72965300
      5.06000000	      0.01645317	     -0.08378822	    275.38781987	     -0.43029224	      0.92727769	      0.50766792	     23.13537164	     -6.86274692	      3.93734001	    -72.55919729	     -4.87268983	     11.52397685	     11.40271024	      9.97203586	     -5.46237701	    -23.41819391	     11.86200329	    -15.03524546	     -6.91926185	     -4.37770900	     -2.47723889
      5.07000000	      0.01063497	     -0.23057915	    276.86804696	     -0.42783376	      0.92818322	      0.51541365	     24.00001844	     -6.89553524	      4.33824466	    -71.72363837	     -3.69151851	     10.91999441	     10.21980320	     10.20017949	     -4.14483315	    -22.74966445	     12.01097098	    -15.02737481	     -7.14946416	     -4.18580531	     -3.22434631
      5.08000000	      0.00698894	     -0.38208495	    278.37543540	     -0.42535679	      0.92901543	      0.52309500	     24.73774584	     -6.94723128	      4.69174003	    -70.64151236	     -2.49157364	     10.17093653	      9.04755641	     10.37675576	     -2.80069123	    -22.12217954	     12.19791817	    -15.01602547	     -7.36967575	     -4.00415167	     -3.96516221
      5.09000000	     -0.00909121	     -0.53111488	    279.92503996	     -0.42283638	      0.92979403	      0.53067666	     25.35379889	     -7.00854163	      4.97524382	    -69.31016013	     -1.37207626	      9.50034324	      7.90486552	     10.49603897	     -1.36571742	    -21.54461418	     12.33711832	    -14.99244199	     -7.57567147	     -3.81247961	     -4.71729206
      5.10000000	     -0.03436984	     -0.68243098	    281.49071451	     -0.42033008	      0.93051982	      0.53822404	     25.84223332	     -7.07453102	      5.19156129	    -67.73888793	     -0.28120695	      8.87738586	      6.78358090	     10.54714436	      0.08507203	    -21.00987362	     12.49849115	    -14.95708232	     -7.76046633	     -3.62203820	     -5.44615142
      5.11000000	     -0.06743787	     -0.83796446	    283.05037563	     -0.41788498	      0.93118541	      0.54568356	     26.21518403	     -7.12092540	      5.38008061	    -65.94293014	      0.74689960	      8.35845931	      5.70860916	     10.53338236	      1.55034063	    -20.55330007	     12.67966288	    -14.90661456	     -7.93827078	     -3.43385134	     -6.14457185
      5.12000000	     -0.11415344	     -0.98544276	    284.60042276	     -0.41550704	      0.93177472	      0.55308684	     26.48686835	     -7.14317843	      5.53247136	    -63.92922382	      1.66950921	      7.97299716	      4.69255456	     10.45222875	      3.00929083	    -20.16606397	     12.87623003	    -14.83877954	     -8.08533866	     -3.24959904	     -6.79414083
      5.13000000	     -0.17379029	     -1.11793039	    286.12844570	     -0.41320892	      0.93226409	      0.56042791	     26.67237988	     -7.13564816	      5.66872032	    -61.71058819	      2.46534448	      7.72301563	      3.75434581	     10.31034243	      4.44416001	    -19.86049132	     13.09676569	    -14.75473214	     -8.19749384	     -3.07002978	     -7.40647776
